<svg xmlns="http://www.w3.org/2000/svg" width="177.754" height="39.068" viewBox="0 0 177.754 39.068">
    <g transform="translate(-106.521 -90.657)">
        <path
                d="M13.34-14.28H2.86A2.859,2.859,0,0,0,0-11.42V0H.96V-6.66H15.24V0h.94V-11.42A2.855,2.855,0,0,0,13.34-14.28ZM.96-7.62v-3.8a1.9,1.9,0,0,1,1.9-1.92H13.34a1.916,1.916,0,0,1,1.9,1.92v3.8ZM19.94,0V-8.1a1.425,1.425,0,0,1,1.42-1.42H28.5v-.96H21.36A2.386,2.386,0,0,0,18.98-8.1V0Zm26.1-9.24v-.64a.576.576,0,0,0-.18-.42.576.576,0,0,0-.42-.18H30.8v.96H45.14L31.08-1.72a.434.434,0,0,0-.2.22.459.459,0,0,0-.08.28v.64a.533.533,0,0,0,.18.4.533.533,0,0,0,.4.18H46.04V-.96H31.7l14.06-7.8a.482.482,0,0,0,.2-.2A.547.547,0,0,0,46.04-9.24ZM59.26-.96H56.5a.852.852,0,0,1-.7-.42l-6.88-12.9H47.84L55-.84A1.786,1.786,0,0,0,56.42,0h2.94a1.751,1.751,0,0,0,1.4-.84l7.18-13.44H66.86l-6.9,12.9A.825.825,0,0,1,59.26-.96ZM69.74,0h.96V-10.48h-.96Zm0-13.34v.96h.96v-.96ZM86.36,0a2.386,2.386,0,0,0,2.38-2.38v-.96a2.4,2.4,0,0,0-2.38-2.38H75.88a1.425,1.425,0,0,1-1.42-1.42V-8.1a1.425,1.425,0,0,1,1.42-1.42H88.26v-.96H75.88A2.386,2.386,0,0,0,73.5-8.1v.96a2.373,2.373,0,0,0,2.38,2.38H86.36a1.425,1.425,0,0,1,1.42,1.42v.96A1.425,1.425,0,0,1,86.36-.96H73.98V0Zm5.18,0h.96V-10.48h-.96Zm0-13.34v.96h.96v-.96Zm16.62,2.86H97.68A2.386,2.386,0,0,0,95.3-8.1v5.72A2.373,2.373,0,0,0,97.68,0h10.48a2.386,2.386,0,0,0,2.38-2.38V-8.1A2.4,2.4,0,0,0,108.16-10.48Zm1.42,8.1a1.425,1.425,0,0,1-1.42,1.42H97.68a1.425,1.425,0,0,1-1.42-1.42V-8.1a1.425,1.425,0,0,1,1.42-1.42h10.48a1.425,1.425,0,0,1,1.42,1.42Zm16.62-8.1H113.34V0h.96V-9.52h11.9a1.425,1.425,0,0,1,1.42,1.42V0h.96V-8.1A2.4,2.4,0,0,0,126.2-10.48Z"
                transform="translate(155.045 117.67)" fill="#64748b" stroke="#64748b" stroke-width="1.3"/>
    </g>
</svg>
